<mxfile host="app.diagrams.net" agent="Mozilla/5.0 (Windows NT 10.0; Win64; x64) AppleWebKit/537.36 (KHTML, like Gecko) Chrome/129.0.0.0 Safari/537.36" version="24.8.1">
  <diagram name="PÃ¡gina-1" id="986Ps2vfZlasU7t_HNx1">
    <mxGraphModel dx="1050" dy="522" grid="1" gridSize="10" guides="1" tooltips="1" connect="1" arrows="1" fold="1" page="1" pageScale="1" pageWidth="827" pageHeight="1169" math="0" shadow="0">
      <root>
        <mxCell id="0" />
        <mxCell id="1" parent="0" />
        <mxCell id="nsd4AqGxwl4m15xpDFLn-1" value="NETSMS" style="shape=cylinder3;whiteSpace=wrap;html=1;boundedLbl=1;backgroundOutline=1;size=15;verticalAlign=top;" vertex="1" parent="1">
          <mxGeometry x="170" y="230" width="480" height="240" as="geometry" />
        </mxCell>
        <mxCell id="nsd4AqGxwl4m15xpDFLn-2" value="Contrato" style="swimlane;fontStyle=0;childLayout=stackLayout;horizontal=1;startSize=30;horizontalStack=0;resizeParent=1;resizeParentMax=0;resizeLast=0;collapsible=1;marginBottom=0;whiteSpace=wrap;html=1;" vertex="1" parent="1">
          <mxGeometry x="480" y="270" width="140" height="90" as="geometry" />
        </mxCell>
        <mxCell id="nsd4AqGxwl4m15xpDFLn-3" value="ID contrato" style="text;strokeColor=none;fillColor=none;align=left;verticalAlign=middle;spacingLeft=4;spacingRight=4;overflow=hidden;points=[[0,0.5],[1,0.5]];portConstraint=eastwest;rotatable=0;whiteSpace=wrap;html=1;" vertex="1" parent="nsd4AqGxwl4m15xpDFLn-2">
          <mxGeometry y="30" width="140" height="30" as="geometry" />
        </mxCell>
        <mxCell id="nsd4AqGxwl4m15xpDFLn-4" value="Status Contrato" style="text;strokeColor=none;fillColor=none;align=left;verticalAlign=middle;spacingLeft=4;spacingRight=4;overflow=hidden;points=[[0,0.5],[1,0.5]];portConstraint=eastwest;rotatable=0;whiteSpace=wrap;html=1;" vertex="1" parent="nsd4AqGxwl4m15xpDFLn-2">
          <mxGeometry y="60" width="140" height="30" as="geometry" />
        </mxCell>
        <mxCell id="nsd4AqGxwl4m15xpDFLn-6" value="Item Contrato" style="swimlane;fontStyle=0;childLayout=stackLayout;horizontal=1;startSize=30;horizontalStack=0;resizeParent=1;resizeParentMax=0;resizeLast=0;collapsible=1;marginBottom=0;whiteSpace=wrap;html=1;" vertex="1" parent="1">
          <mxGeometry x="480" y="370" width="140" height="90" as="geometry" />
        </mxCell>
        <mxCell id="nsd4AqGxwl4m15xpDFLn-7" value="ID item contrato" style="text;strokeColor=none;fillColor=none;align=left;verticalAlign=middle;spacingLeft=4;spacingRight=4;overflow=hidden;points=[[0,0.5],[1,0.5]];portConstraint=eastwest;rotatable=0;whiteSpace=wrap;html=1;" vertex="1" parent="nsd4AqGxwl4m15xpDFLn-6">
          <mxGeometry y="30" width="140" height="30" as="geometry" />
        </mxCell>
        <mxCell id="nsd4AqGxwl4m15xpDFLn-8" value="Status item de Contrato" style="text;strokeColor=none;fillColor=none;align=left;verticalAlign=middle;spacingLeft=4;spacingRight=4;overflow=hidden;points=[[0,0.5],[1,0.5]];portConstraint=eastwest;rotatable=0;whiteSpace=wrap;html=1;" vertex="1" parent="nsd4AqGxwl4m15xpDFLn-6">
          <mxGeometry y="60" width="140" height="30" as="geometry" />
        </mxCell>
        <mxCell id="nsd4AqGxwl4m15xpDFLn-9" value="Trigger1&amp;nbsp;&lt;div style=&quot;font-size: 12px;&quot;&gt;Status.&lt;/div&gt;" style="html=1;shape=mxgraph.infographic.ribbonSimple;notch1=20;notch2=0;align=center;verticalAlign=middle;fontSize=12;fontStyle=0;flipH=1;fillColor=#fff2cc;whiteSpace=wrap;strokeColor=#d6b656;" vertex="1" parent="1">
          <mxGeometry x="400" y="380" width="70" height="40" as="geometry" />
        </mxCell>
        <mxCell id="nsd4AqGxwl4m15xpDFLn-10" style="edgeStyle=orthogonalEdgeStyle;rounded=0;orthogonalLoop=1;jettySize=auto;html=1;entryX=0;entryY=0;entryDx=40;entryDy=0;entryPerimeter=0;" edge="1" parent="1" source="nsd4AqGxwl4m15xpDFLn-4" target="nsd4AqGxwl4m15xpDFLn-9">
          <mxGeometry relative="1" as="geometry" />
        </mxCell>
        <mxCell id="nsd4AqGxwl4m15xpDFLn-11" style="edgeStyle=orthogonalEdgeStyle;rounded=0;orthogonalLoop=1;jettySize=auto;html=1;entryX=0;entryY=0;entryDx=40;entryDy=40;entryPerimeter=0;" edge="1" parent="1" source="nsd4AqGxwl4m15xpDFLn-8" target="nsd4AqGxwl4m15xpDFLn-9">
          <mxGeometry relative="1" as="geometry" />
        </mxCell>
        <object label="Controle Callback" id="nsd4AqGxwl4m15xpDFLn-12">
          <mxCell style="swimlane;fontStyle=0;childLayout=stackLayout;horizontal=1;startSize=30;horizontalStack=0;resizeParent=1;resizeParentMax=0;resizeLast=0;collapsible=1;marginBottom=0;whiteSpace=wrap;html=1;fillColor=#fff2cc;strokeColor=#d6b656;" vertex="1" parent="1">
            <mxGeometry x="220" y="280" width="140" height="150" as="geometry" />
          </mxCell>
        </object>
        <mxCell id="nsd4AqGxwl4m15xpDFLn-13" value="ID contrato" style="text;strokeColor=none;fillColor=none;align=left;verticalAlign=middle;spacingLeft=4;spacingRight=4;overflow=hidden;points=[[0,0.5],[1,0.5]];portConstraint=eastwest;rotatable=0;whiteSpace=wrap;html=1;" vertex="1" parent="nsd4AqGxwl4m15xpDFLn-12">
          <mxGeometry y="30" width="140" height="30" as="geometry" />
        </mxCell>
        <mxCell id="nsd4AqGxwl4m15xpDFLn-14" value="Status Contrato" style="text;strokeColor=none;fillColor=none;align=left;verticalAlign=middle;spacingLeft=4;spacingRight=4;overflow=hidden;points=[[0,0.5],[1,0.5]];portConstraint=eastwest;rotatable=0;whiteSpace=wrap;html=1;" vertex="1" parent="nsd4AqGxwl4m15xpDFLn-12">
          <mxGeometry y="60" width="140" height="30" as="geometry" />
        </mxCell>
        <mxCell id="nsd4AqGxwl4m15xpDFLn-16" value="ID Item Contrato" style="text;strokeColor=none;fillColor=none;align=left;verticalAlign=middle;spacingLeft=4;spacingRight=4;overflow=hidden;points=[[0,0.5],[1,0.5]];portConstraint=eastwest;rotatable=0;whiteSpace=wrap;html=1;" vertex="1" parent="nsd4AqGxwl4m15xpDFLn-12">
          <mxGeometry y="90" width="140" height="30" as="geometry" />
        </mxCell>
        <mxCell id="nsd4AqGxwl4m15xpDFLn-17" value="Status Item Contrato" style="text;strokeColor=none;fillColor=none;align=left;verticalAlign=middle;spacingLeft=4;spacingRight=4;overflow=hidden;points=[[0,0.5],[1,0.5]];portConstraint=eastwest;rotatable=0;whiteSpace=wrap;html=1;" vertex="1" parent="nsd4AqGxwl4m15xpDFLn-12">
          <mxGeometry y="120" width="140" height="30" as="geometry" />
        </mxCell>
        <mxCell id="nsd4AqGxwl4m15xpDFLn-18" style="edgeStyle=orthogonalEdgeStyle;rounded=0;orthogonalLoop=1;jettySize=auto;html=1;entryX=0.983;entryY=0.104;entryDx=0;entryDy=0;entryPerimeter=0;" edge="1" parent="1" source="nsd4AqGxwl4m15xpDFLn-9" target="nsd4AqGxwl4m15xpDFLn-12">
          <mxGeometry relative="1" as="geometry" />
        </mxCell>
        <mxCell id="nsd4AqGxwl4m15xpDFLn-20" style="edgeStyle=orthogonalEdgeStyle;rounded=0;orthogonalLoop=1;jettySize=auto;html=1;" edge="1" parent="1" source="nsd4AqGxwl4m15xpDFLn-19" target="nsd4AqGxwl4m15xpDFLn-12">
          <mxGeometry relative="1" as="geometry" />
        </mxCell>
        <mxCell id="nsd4AqGxwl4m15xpDFLn-22" value="" style="edgeStyle=orthogonalEdgeStyle;rounded=0;orthogonalLoop=1;jettySize=auto;html=1;" edge="1" parent="1" source="nsd4AqGxwl4m15xpDFLn-19" target="nsd4AqGxwl4m15xpDFLn-21">
          <mxGeometry relative="1" as="geometry" />
        </mxCell>
        <mxCell id="nsd4AqGxwl4m15xpDFLn-23" value="Chama API Solar e&amp;nbsp;&lt;div&gt;enviar dados atualizados&lt;/div&gt;" style="edgeLabel;html=1;align=center;verticalAlign=middle;resizable=0;points=[];" vertex="1" connectable="0" parent="nsd4AqGxwl4m15xpDFLn-22">
          <mxGeometry x="0.04" relative="1" as="geometry">
            <mxPoint as="offset" />
          </mxGeometry>
        </mxCell>
        <mxCell id="nsd4AqGxwl4m15xpDFLn-19" value="NOVO MS ATUALIZA STATUS CONTRATO SOLAR" style="rounded=1;whiteSpace=wrap;html=1;fillColor=#fff2cc;strokeColor=#d6b656;" vertex="1" parent="1">
          <mxGeometry x="230" y="110" width="120" height="60" as="geometry" />
        </mxCell>
        <mxCell id="nsd4AqGxwl4m15xpDFLn-21" value="API CALLBACK SOLAR (APIGEE)" style="whiteSpace=wrap;html=1;rounded=1;" vertex="1" parent="1">
          <mxGeometry x="610" y="110" width="120" height="60" as="geometry" />
        </mxCell>
      </root>
    </mxGraphModel>
  </diagram>
</mxfile>
